<?xml version="1.0" encoding="utf-8"?>
<!-- Generator: Adobe Illustrator 17.1.0, SVG Export Plug-In . SVG Version: 6.00 Build 0)  -->
<!DOCTYPE svg PUBLIC "-//W3C//DTD SVG 1.1//EN" "http://www.w3.org/Graphics/SVG/1.1/DTD/svg11.dtd">
<svg version="1.1" id="Layer_1" xmlns="http://www.w3.org/2000/svg" xmlns:xlink="http://www.w3.org/1999/xlink" x="0px" y="0px"
	 viewBox="0 0 120 120" enable-background="new 0 0 120 120" xml:space="preserve">
<path d="M60,1C27.4,1,1,27.4,1,60s26.4,59,59,59c32.6,0,59-26.4,59-59S92.6,1,60,1z M68.1,32.2c1.1-1.1,2.9-1.1,4,0l15.7,15.7
	c1.1,1.1,1.1,2.9,0,4c-0.6,0.6-1.3,0.8-2,0.8s-1.5-0.3-2-0.8L68.1,36.2C66.9,35.1,66.9,33.3,68.1,32.2z M69.9,65.8
	c1.1,1.1,1.1,2.9,0,4c-0.6,0.6-1.3,0.8-2,0.8s-1.5-0.3-2-0.8L50.1,54.2c-1.1-1.1-1.1-2.9,0-4c1.1-1.1,2.9-1.1,4,0L69.9,65.8z
	 M47,29.1c1.1-1.1,2.9-1.1,4,0l15.7,15.7c1.1,1.1,1.1,2.9,0,4c-0.6,0.6-1.3,0.8-2,0.8s-1.5-0.3-2-0.8L47,33.1
	C45.9,32,45.9,30.2,47,29.1z M29.1,47c1.1-1.1,2.9-1.1,4,0l15.7,15.7c1.1,1.1,1.1,2.9,0,4c-0.6,0.6-1.3,0.8-2,0.8s-1.5-0.3-2-0.8
	L29.1,51C28,49.9,28,48.1,29.1,47z M51.9,87.8c-0.6,0.6-1.3,0.8-2,0.8s-1.5-0.3-2-0.8L32.2,72.1c-1.1-1.1-1.1-2.9,0-4
	c1.1-1.1,2.9-1.1,4,0l15.7,15.7C53.1,84.9,53.1,86.7,51.9,87.8z M73,90.9c-0.6,0.6-1.3,0.8-2,0.8s-1.5-0.3-2-0.8L53.3,75.2
	c-1.1-1.1-1.1-2.9,0-4c1.1-1.1,2.9-1.1,4,0L73,86.9C74.1,88,74.1,89.8,73,90.9z M90.9,73c-0.6,0.6-1.3,0.8-2,0.8s-1.5-0.3-2-0.8
	L71.2,57.3c-1.1-1.1-1.1-2.9,0-4c1.1-1.1,2.9-1.1,4,0L90.9,69C92,70.1,92,71.9,90.9,73z"/>
</svg>
