<?xml version="1.0" encoding="utf-8"?>
<!-- Generator: Adobe Illustrator 17.1.0, SVG Export Plug-In . SVG Version: 6.00 Build 0)  -->
<!DOCTYPE svg PUBLIC "-//W3C//DTD SVG 1.1//EN" "http://www.w3.org/Graphics/SVG/1.1/DTD/svg11.dtd">
<svg version="1.1" id="Layer_1" xmlns="http://www.w3.org/2000/svg" xmlns:xlink="http://www.w3.org/1999/xlink" x="0px" y="0px"
	 viewBox="0 0 120 120" enable-background="new 0 0 120 120" xml:space="preserve">
<g>
	<path fill="#231F20" d="M60,1C27.4,1,1,27.4,1,60s26.4,59,59,59c32.6,0,59-26.4,59-59S92.6,1,60,1z M102.1,67.5
		c-5.5,0-8.3-3.1-10.5-5.6c-2.1-2.4-3.5-3.7-6.3-3.7c-2.8,0-4.2,1.3-6.3,3.7c-2.3,2.5-5.1,5.6-10.5,5.6c-5.5,0-8.3-3.1-10.5-5.6
		c-2.1-2.4-3.5-3.7-6.3-3.7c-2.8,0-4.2,1.3-6.3,3.7c-2.3,2.5-5.1,5.6-10.5,5.6c-5.5,0-8.3-3.1-10.5-5.6c-2.1-2.4-3.5-3.7-6.3-3.7
		c-1.6,0-2.8-1.3-2.8-2.8c0-1.6,1.3-2.8,2.8-2.8c5.5,0,8.3,3.1,10.5,5.6c2.1,2.4,3.5,3.7,6.3,3.7c2.8,0,4.2-1.3,6.3-3.7
		c2.3-2.5,5.1-5.6,10.5-5.6c5.5,0,8.3,3.1,10.5,5.6c2.1,2.4,3.5,3.7,6.3,3.7c2.8,0,4.2-1.3,6.3-3.7c2.3-2.5,5.1-5.6,10.5-5.6
		c5.5,0,8.3,3.1,10.5,5.6c2.1,2.4,3.5,3.7,6.3,3.7c1.6,0,2.8,1.3,2.8,2.8S103.6,67.5,102.1,67.5z"/>
</g>
</svg>
