<?xml version="1.0" encoding="utf-8"?>
<!-- Generator: Adobe Illustrator 17.1.0, SVG Export Plug-In . SVG Version: 6.00 Build 0)  -->
<!DOCTYPE svg PUBLIC "-//W3C//DTD SVG 1.1//EN" "http://www.w3.org/Graphics/SVG/1.1/DTD/svg11.dtd">
<svg version="1.1" id="Layer_1" xmlns="http://www.w3.org/2000/svg" xmlns:xlink="http://www.w3.org/1999/xlink" x="0px" y="0px"
	 viewBox="0 0 120 120" enable-background="new 0 0 120 120" xml:space="preserve">
<g>
	<path d="M60,1C27.4,1,1,27.4,1,60c0,32.6,26.4,59,59,59c32.6,0,59-26.4,59-59C119,27.4,92.6,1,60,1z M55.4,76.5
		c-0.6,0.6-1.3,0.8-2,0.8c-0.7,0-1.5-0.3-2-0.8L40.5,65.7L29.7,76.5c-1.1,1.1-2.9,1.1-4,0c-1.1-1.1-1.1-2.9,0-4l12.9-12.9
		c1.1-1.1,3-1.1,4,0l12.9,12.9C56.5,73.6,56.5,75.4,55.4,76.5z M59.7,40.4L48.9,51.2c-1.1,1.1-2.9,1.1-4,0c-1.1-1.1-1.1-2.9,0-4
		l12.9-12.9c1.1-1.1,3-1.1,4,0l12.9,12.9c1.1,1.1,1.1,2.9,0,4c-0.6,0.6-1.3,0.8-2,0.8c-0.7,0-1.5-0.3-2-0.8L59.7,40.4z M94.4,76.5
		c-0.6,0.6-1.3,0.8-2,0.8c-0.7,0-1.5-0.3-2-0.8L79.6,65.7L68.7,76.5c-1.1,1.1-2.9,1.1-4,0c-1.1-1.1-1.1-2.9,0-4l12.9-12.9
		c1.1-1.1,3-1.1,4,0l12.9,12.9C95.6,73.6,95.6,75.4,94.4,76.5z"/>
</g>
</svg>
