<svg version="1.1" id="Layer_1" xmlns="http://www.w3.org/2000/svg" xmlns:xlink="http://www.w3.org/1999/xlink" x="0px" y="0px"
	 viewBox="0 0 100 100" enable-background="new 0 0 100 100" xml:space="preserve">
	<path class="icon-writing" d="M50,100C22.43,100,0,77.57,0,50S22.43,0,50,0s50,22.43,50,50S77.57,100,50,100z M50,4.603
		C24.968,4.603,4.603,24.968,4.603,50S24.968,95.397,50,95.397c25.032,0,45.397-20.365,45.397-45.397S75.032,4.603,50,4.603z"/>
	<path class="icon-writing" d="M25.264,77.688c-0.589,0-1.178-0.225-1.627-0.674c-0.899-0.899-0.899-2.356,0-3.255l50.122-50.122
		c0.899-0.899,2.356-0.899,3.255,0c0.899,0.899,0.899,2.356,0,3.255L26.892,77.014C26.442,77.463,25.853,77.688,25.264,77.688z"/>
	<path class="icon-writing" d="M21.033,63.693c-0.589,0-1.178-0.225-1.627-0.674c-0.899-0.899-0.899-2.356,0-3.255l40.358-40.358
		c0.899-0.899,2.356-0.899,3.255,0c0.899,0.899,0.899,2.356,0,3.255L22.661,63.019C22.211,63.468,21.622,63.693,21.033,63.693z"/>
	<path class="icon-writing" d="M17.616,48.884c-0.589,0-1.178-0.225-1.627-0.674c-0.899-0.899-0.899-2.356,0-3.255l28.967-28.967
		c0.899-0.899,2.356-0.898,3.255,0c0.899,0.899,0.899,2.356,0,3.255L19.243,48.21C18.794,48.659,18.205,48.884,17.616,48.884z"/>
	<path class="icon-writing" d="M38.609,81.268c-0.589,0-1.178-0.225-1.627-0.674c-0.899-0.899-0.899-2.356,0-3.255l40.358-40.358
		c0.899-0.899,2.356-0.899,3.255,0c0.899,0.899,0.899,2.356,0,3.255L40.236,80.594C39.786,81.044,39.198,81.268,38.609,81.268z"/>
	<path class="icon-writing" d="M53.417,84.686c-0.589,0-1.178-0.225-1.627-0.674c-0.899-0.899-0.899-2.356,0-3.255L80.757,51.79
		c0.899-0.899,2.356-0.898,3.255,0c0.899,0.899,0.899,2.356,0,3.255L55.045,84.012C54.596,84.461,54.006,84.686,53.417,84.686z"/>
</svg>
